<?xml version="1.0" standalone="no"?>
<!DOCTYPE svg PUBLIC "-//W3C//DTD SVG 20010904//EN"
 "http://www.w3.org/TR/2001/REC-SVG-20010904/DTD/svg10.dtd">
<svg version="1.0" xmlns="http://www.w3.org/2000/svg"
 width="500.000000pt" height="500.000000pt" viewBox="0 0 500.000000 500.000000"
 preserveAspectRatio="xMidYMid meet">
<metadata>
Created by potrace 1.11, written by Peter Selinger 2001-2013
</metadata>
<g transform="translate(0.000000,500.000000) scale(0.100000,-0.100000)"
fill="#000000" stroke="none">
<path d="M2163 4186 c-22 -7 -55 -24 -73 -36 -30 -22 -324 -309 -945 -925
-237 -236 -295 -298 -309 -335 -14 -40 -16 -86 -14 -385 l3 -340 29 -55 c23
-44 147 -173 605 -628 317 -315 599 -590 626 -611 96 -73 99 -73 493 -78 l353
-4 -93 95 c-51 52 -319 323 -594 603 -276 279 -619 627 -763 773 l-261 265
184 180 c159 155 524 510 720 699 33 32 122 118 197 190 215 209 204 199 220
183 26 -26 476 -491 560 -579 80 -82 395 -409 544 -563 39 -40 87 -90 108
-112 l39 -41 -109 -105 c-59 -57 -160 -154 -223 -215 l-115 -111 -64 67 c-35
37 -112 117 -170 177 -58 61 -179 187 -267 280 -89 94 -197 207 -240 252 l-79
83 -119 -113 c-66 -61 -160 -150 -208 -197 l-88 -85 52 -55 c29 -31 100 -107
158 -169 58 -63 120 -130 137 -149 143 -153 235 -253 334 -364 39 -43 89 -86
120 -103 l54 -30 365 0 c450 0 401 -16 620 204 200 202 197 199 220 262 18 49
20 80 20 375 0 354 -3 376 -60 459 -18 26 -73 89 -122 139 -349 356 -768 787
-857 882 -36 38 -87 93 -115 123 -30 32 -74 65 -106 80 l-55 26 -335 2 c-257
2 -345 -1 -377 -11z"/>
</g>
</svg>
